# xmcd CD database file
#
# Track frame offsets:
#	150
#	14169
#	30395
#	46816
#	62650
#	81312
#	98653
#	111562
#	128368
#	146970
#	162298
#
# Disc length: 2243 seconds
#
# Revision: 0
# Processed by: cddbd v1.5.2PL0 Copyright (c) Steve Scherf et al.
# Submitted via: CDex 1.51
#
DISCID=9108c10b
DTITLE=Bob Fortner - Back Where I Came From
DYEAR=1900
DGENRE=Country
TTITLE0=Simple Life
TTITLE1=Small Town Girl
TTITLE2=Back Where I Came From
TTITLE3=The Devil Went Down to Georgia
TTITLE4=Except For September
TTITLE5=Fishin' in the Dark
TTITLE6=Rocky Road to Romance
TTITLE7=Waiting in the Wings
TTITLE8=South's Gonna Do It Again
TTITLE9=Same Ole Heart
TTITLE10=Simple Life - Reprise
EXTD=
EXTT0=
EXTT1=
EXTT2=
EXTT3=
EXTT4=
EXTT5=
EXTT6=
EXTT7=
EXTT8=
EXTT9=
EXTT10=
PLAYORDER=
